<?xml version="1.0" encoding="UTF-8"?>
<svg id="Layer_2" data-name="Layer 2" xmlns="http://www.w3.org/2000/svg" viewBox="0 0 237.21 183.86">
  <defs>
    <style>
      .cls-1 {
        fill: #fff;
      }

      .cls-2 {
        fill: #f15b2d;
      }
    </style>
  </defs>
  <g id="Layer_1-2" data-name="Layer 1">
    <g>
      <path class="cls-2" d="M120.49,48.9c18.45-14.94,33.87-35.8,54.95-47.02,5.81-1.83,12.47-2.08,18.34-.12,15.35,4.2,24.53,22.15,18.59,36.8-1.37,4.11-4.06,7.79-7.2,10.86-23.08,21.3-46.22,42.57-69.39,63.79-3.61,3.11-7.92,5.42-12.58,6.55-6.2,1.44-12.87.85-18.7-1.46-28.26-19.72-51.28-47.01-77.4-69.42-6.83-6.5-10.23-16.27-8.39-25.52C23.38,1.32,49.57-7.48,67.05,7.32l48.89,45.56c1.65-.43,3.16-2.81,4.55-3.97"/>
      <path class="cls-2" d="M227.03,65.97c.75.86,1.27,2.28,1.61,3.47,1.48,5.58,2.99,11.47,4.4,17.24,2.8,13.62,7.14,29.06,1.21,42.47-5.61,12.47-20.41,19.74-33.9,15.85-21.97-6.57-28.13-31.09-13-47.81,5.34-6.57,11.77-12.16,18.06-17.8,4.52-3.98,9.08-8.02,13.7-11.81,2.07-1.65,5.46-4.08,7.79-1.77l.14.15Z"/>
      <path class="cls-1" d="M27.61,88.93c.84-.16,1.7-.15,2.54,0,.24,0,.48,0,.73,0l1.45.18c.12,0,.24,0,.36,0l.91.18c.12.01.25-.02.36,0l.73.18c.06.01.12-.01.18,0l.54.18c.06.01.12-.01.18,0l.54.18c.06.01.12-.02.18,0l.54.18c.06.02.12-.01.18,0l.36.18c.05.02.12-.01.18,0l.91.36c.06.02.12-.02.18,0l.36.18c.05.02.13-.02.18,0,7.05,2.71,12.75,7.98,15.93,14.71.02.05-.02.12,0,.18.57,1.2,1.05,2.44,1.44,3.71.02.05-.01.12,0,.18l.18.53c.01.05-.01.12,0,.18l.18.53c.01.06-.01.12,0,.18l.18.71c0,.06,0,.12,0,.18l.18.71c0,.06,0,.12,0,.18l.18,1.06c0,.12,0,.23,0,.35l.18,2.12c0,.53,0,1.06,0,1.59l-.19,2.12c0,.12,0,.24,0,.36l-.19,1.06c0,.06,0,.12,0,.18l-.18.88c0,.06,0,.12,0,.18l-.18.71c-.01.06.01.12,0,.18l-.18.53c-.01.06.01.12,0,.18l-.37,1.06c-.01.05.01.12,0,.18l-.18.35c-.01.05.02.12,0,.18l-.18.35c-.02.06.02.13,0,.18-2.92,7.64-8.96,13.78-16.75,16.74-.05.02-.13-.02-.18,0l-2.54.88c-.06.02-.12-.02-.18,0l-.54.17c-.06.02-.12-.01-.18,0l-.55.18c-.06.01-.12-.01-.18,0l-.73.17c-.06,0-.12,0-.18,0l-.91.17c-.06,0-.12,0-.18,0l-1.27.17c-.12,0-.24,0-.36,0-1.69.15-3.39.15-5.08-.01-.18,0-.36,0-.55,0l-1.09-.18c-.06,0-.12,0-.18,0l-.91-.18c-.06,0-.12,0-.18,0l-.73-.18c-.06-.01-.12,0-.18,0l-.54-.18c-.06-.02-.12.01-.18,0l-.54-.18c-.06-.02-.12.02-.18,0l-2.54-.89c-.05-.02-.13.02-.18,0l-.72-.36c-.05-.02-.13.02-.18,0-3.16-1.48-6.16-3.3-8.7-5.68C0,128.26-2.39,116.63,2.52,105.29c3.01-6.37,8.49-11.52,15.11-14.27.05-.02.13.02.18,0l.73-.35c.06-.02.13.02.18,0l2-.7c.06-.01.12.01.18,0l1.27-.35c.06-.01.12.01.18,0l.54-.17c.06-.01.12.01.18,0l.73-.17c.11-.02.25.02.36,0l.91-.18c.12-.01.24.01.36,0,.41-.13.83-.19,1.27-.17.3-.01.61.01.91,0"/>
      <path class="cls-1" d="M26.12,168.79c1.68.16,3.44.23,5.08.01.12,0,.24,0,.36,0l1.27-.17c.12-.01.25.02.36,0l.73-.18c.06-.01.12.01.18,0l.55-.18c.06-.01.12.01.18,0l.36-.18c.06-.02.12.02.18,0l.36-.18c.05-.02.13.02.18,0l.73-.35c.05-.02.13.02.18,0,1.91-.91,3.74-1.98,5.45-3.21,2.15-1.83,4.45-3.4,6.92-4.71.24-.03.67-.02.91,0,1.21.25,1.9,1.18,2.17,2.3,0,.06,0,.12,0,.18l.18,1.41c0,3.76-.02,7.53-.03,11.3-.06,1.84-.13,3.66-.2,5.48,0,.06,0,.12,0,.18-.21,1.08-.73,2.03-1.82,2.47-.05.02-.12-.02-.18,0l-.36.17c-.06,0-.12,0-.18,0-.28.15-.63.16-.91,0-.06,0-.13.01-.18,0-.72-.36-1.22-1.02-1.45-1.77,0-.06,0-.12,0-.18l-.18-1.77c0-.59,0-1.18,0-1.77.02-3.16-.04-6.05-.16-8.66-2.35.1-4.49,1.86-6.66,2.78-9.85,4.22-19.5,2.83-28.37-2.8-1.32-.45-1.37.82-1.46,1.77-.22,2.37.12,5.02-.01,7.43-.05.92-.22,3.07-.66,3.78-.88,1.42-3.1,1.44-4.05.06-.51-.74-.68-2.09-.75-2.98-.3-4.33-.33-11.6.05-15.9.13-1.49.72-3.63,2.64-3.62,2.05.01,6.73,4.62,8.65,5.9,2.92,1.94,6.38,3.17,9.93,3.34"/>
      <path class="cls-1" d="M101.12,159.63l8.22-.18c9.54.23,19.09.33,28.63.28.18,0,.36-.01.55,0l.73.18c.06.01.13-.01.18,0,1.04.31,1.96.83,2.18,1.95,0,.06,0,.12,0,.18.17.33.17.73,0,1.06,0,.06,0,.12,0,.18-.21.63-.71,1.07-1.27,1.41-.05.02-.13-.02-.18,0l-.55.18c-.06.01-.12-.01-.18,0l-.91.18c-.12,0-.24,0-.36,0-4.23.05-8.41.1-12.53.14-.24,0-.48,0-.72,0-.66.09-1.32.15-2,.17-.13.03-.36-.07-.51.03-.09.08-.02.23-.04.32l-.18.88c0,.06,0,.12,0,.18-.13,1.53-.19,3.12-.19,4.77-.01,2.82,0,5.66-.03,8.48l-.18,1.41c0,.06,0,.12,0,.18-.3.76-.86,1.43-1.64,1.76-.06.01-.12,0-.18,0-1.59.38-2.88-.66-3.26-2.13-.01-.12,0-.24,0-.36-.08-4.34-.12-8.64-.15-12.9,0-.23.01-.47,0-.71-.1-.46-.16-.93-.18-1.41-.03-.13.08-.35-.02-.51-.16-.09-.39,0-.52-.02-.61-.03-1.22-.09-1.82-.18-.24,0-.48,0-.73,0-4.12-.06-8.3-.13-12.53-.21-.12,0-.24,0-.36,0l-.73-.18c-.06-.01-.12.01-.18,0-1.1-.1-1.91-.93-2.17-1.95-.01-.11,0-.24,0-.35.23-1.06.8-1.98,1.82-2.47.05-.02.12.02.18,0l.36-.18c.06-.01.12.01.18,0l.73-.17c.18-.02.37,0,.55,0"/>
      <path class="cls-1" d="M214.04,158.88l1.09.18c.06,0,.12,0,.18,0l.54.18c.06.01.13-.02.18,0,1.67.62,2.95,1.75,4.09,3.06,3.69,4.23,7.07,8.86,10.35,13.4,1.39,1.68,2.49,3.45,3.29,5.32,0,.06,0,.12,0,.18.11.18.11.35,0,.53-.01.06.02.12,0,.18-.32.78-.86,1.38-1.64,1.76-.05.02-.12-.02-.18,0l-.36.18c-.24.02-.67.03-.91,0-1.21-.51-2.14-1.58-2.96-2.59-3.03-3.76-5.9-7.61-8.69-11.54-.8-1.07-1.62-2.12-2.44-3.18-.71-.92-1.33-1.55-2.38-1.99-.05-.02-.12,0-.18,0-1.19-.24-2.38,1.14-3.07,2-2.8,3.49-5.56,6.99-8.09,10.68-1.6,2.43-3.47,4.55-5.59,6.36-.05.02-.12-.02-.18,0l-.54.17c-.12,0-.24,0-.36,0-1.25-.18-2.17-.95-2.54-2.13-.02-.05,0-.12,0-.18-.13-.23-.11-.48,0-.71.01-.06-.01-.12,0-.18,3.32-5.55,7.53-10.93,11.7-15.97.66-.8,1.35-1.59,2.04-2.35,1.15-1.27,2.46-2.39,4.11-3.01.05-.02.12.02.18,0l.55-.18c.06-.01.12,0,.18,0,.34-.13.71-.19,1.09-.17.18-.01.36.01.55,0"/>
      <path class="cls-1" d="M80.61,158.51l1.09.18c.06,0,.12,0,.18,0l.54.18c.06.01.13-.02.18,0,1.66.62,2.89,1.77,4.04,3.06.74.82,1.44,1.67,2.14,2.52,4.14,5.03,8.38,10.45,11.55,16.02.01.05,0,.12,0,.18.1.18.11.35,0,.53,0,.06.01.13,0,.18-.33,1.12-1.22,1.85-2.36,2.12-.2.02-.53.02-.73,0l-.6-.23c-3.82-3.82-7.25-8.11-10.29-12.89-1.56-2.62-3.42-4.68-5.58-6.18-.05-.02-.12.01-.18,0-.93-.29-2.04.77-2.59,1.45-2.91,3.6-5.8,7.2-8.41,11.02-1.73,2.78-3.84,5.02-6.3,6.74-.19.02-.53.02-.73,0-1.08-.26-1.93-.94-2.36-1.95-.02-.05.01-.12,0-.18-.13-.23-.11-.48,0-.71,0-.06-.01-.12,0-.18,3.94-6.41,8.85-13.14,13.98-18.76,1.09-1.19,2.32-2.19,3.88-2.74.05-.02.12.02.18,0l.55-.18c.06-.01.12,0,.18,0,.34-.13.71-.19,1.09-.17.18-.01.37.01.55,0"/>
      <path class="cls-1" d="M152.49,162.78c.02.11-.01.24,0,.35.08,3.97.13,7.92.15,11.84,0,.18-.01.35,0,.53.16,1.24.6,2.37,1.99,2.66.06,0,.12-.01.18,0,.28.13.58.19.91.18.24.02.49-.01.73,0,9.34.18,18.84.27,28.5.25.12,0,.24,0,.36,0l1.09.18c.06,0,.12,0,.18,0,.75.32,1.23,1.02,1.45,1.77.03.28.03.78,0,1.06-.22,1.05-.98,1.65-2,1.94-.05.01-.12-.01-.18,0l-.73.17c-.18.01-.36,0-.54,0-10.1.04-20.21.01-30.32-.08-.12,0-.24,0-.36,0l-.73-.18c-.06,0-.12.01-.18,0l-.91-.36c-.06-.02-.13.02-.18,0-2.32-.95-4.11-2.87-4.52-5.31-.01-.12,0-.24,0-.35l-.17-2.65c0-.59,0-1.18,0-1.77-.15-2.05-.16-4.13.02-6.18.02-1.26-.2-3.5.01-4.59,1.15-3.17,4.86-2.76,5.26.54"/>
      <path class="cls-2" d="M22.99,102.74c1.22-.06,2.48.89,3.44,1.52,3.16,2.06,7.96,5.47,10.74,7.93,3.04,2.69,3.55,6.23.52,9.2-2.35,2.3-8.65,6.62-11.59,8.5-1.15.74-2.2,1.56-3.7,1.18-.64-.17-1.64-1.11-1.85-1.74-.73-2.19.77-3.07,2.25-4.26,3.33-2.66,7.13-4.99,10.52-7.6.41-.33.41-.7,0-1.03-3.47-2.89-7.94-5.33-11.3-8.27-1.21-1.06-2.13-2.14-1.34-3.78.41-.84,1.33-1.6,2.3-1.65"/>
    </g>
  </g>
</svg>